<svg class="r60B-logo" width="55" height="28" viewBox="0 0 55 28" fill="black" xmlns="http://www.w3.org/2000/svg"><g id="Logo"><path id="Vector" d="M16.0172 19.8433C13.7811 19.8433 11.9609 21.6733 11.9609 23.9217C11.9609 26.1701 13.7811 28.0001 16.0172 28.0001C18.2534 28.0001 20.0735 26.1701 20.0735 23.9217C20.0735 21.6733 18.2534 19.8433 16.0172 19.8433Z"></path><path id="Vector_2" d="M4.68033 19.8433C2.44416 19.8433 0.624023 21.6733 0.624023 23.9217C0.624023 26.1701 2.44416 28.0001 4.68033 28.0001C6.9165 28.0001 8.73664 26.1701 8.73664 23.9217C8.73664 21.6733 6.9165 19.8433 4.68033 19.8433Z"></path><path id="Vector_3" d="M27.328 19.8433C25.0919 19.8433 23.2717 21.6733 23.2717 23.9217C23.2717 26.1701 25.0919 28.0001 27.328 28.0001C29.5642 28.0001 31.3843 26.1701 31.3843 23.9217C31.3843 21.6733 29.5642 19.8433 27.328 19.8433Z"></path><path id="Vector_4" d="M50.0019 19.8433C47.7657 19.8433 45.9456 21.6733 45.9456 23.9217C45.9456 26.1701 47.7657 28.0001 50.0019 28.0001C52.238 28.0001 54.0582 26.1701 54.0582 23.9217C54.0582 21.6733 52.238 19.8433 50.0019 19.8433Z"></path><path id="Vector_5" d="M38.6649 19.8433C36.4288 19.8433 34.6086 21.6733 34.6086 23.9217C34.6086 26.1701 36.4288 28.0001 38.6649 28.0001C40.9011 28.0001 42.7213 26.1701 42.7213 23.9217C42.7213 21.6733 40.9011 19.8433 38.6649 19.8433Z"></path><path id="Vector_6" d="M8.06061 8.28761C8.06061 6.37911 6.6305 4.9412 4.73236 4.9412C2.83421 4.9412 1.40411 6.37911 1.40411 8.28761C1.40411 10.1961 2.83421 11.634 4.73236 11.634C6.6305 11.634 8.06061 10.1961 8.06061 8.28761ZM0 8.28761C0 5.64708 2.10616 3.66016 4.73236 3.66016C7.35856 3.66016 9.46472 5.64708 9.46472 8.28761V12.3399C9.46472 12.7582 9.17869 13.0458 8.73666 13.0458C8.29463 13.0458 8.0086 12.7582 8.0086 12.3399V11.1634H7.9306C7.38456 12.1046 6.26647 12.9412 4.62835 12.9412C2.08016 12.9412 0 10.9543 0 8.28761Z"></path><path id="Vector_7" d="M19.3454 8.28738C19.3454 6.37889 17.9153 4.94098 16.0171 4.94098C14.119 4.94098 12.6889 6.37889 12.6889 8.28738C12.6889 10.1959 14.119 11.6338 16.0171 11.6338C17.9153 11.6338 19.3454 10.1959 19.3454 8.28738ZM13.1309 15.9475C12.7669 15.7645 12.5849 15.4508 12.7149 15.0586C12.8709 14.6665 13.2089 14.5096 13.599 14.6926C14.249 15.0063 15.0551 15.2155 15.9131 15.2155C18.0453 15.2155 19.3194 13.9344 19.3194 11.7645V11.1632H19.2414C18.6953 12.1044 17.5773 12.941 15.9391 12.941C13.3909 12.941 11.3108 10.9541 11.3108 8.28738C11.3108 5.64686 13.417 3.63379 16.0431 3.63379C18.6693 3.63379 20.7755 5.62072 20.7755 8.26124V11.6338C20.7755 14.5358 18.9034 16.4965 15.8611 16.4965C14.9251 16.5227 13.989 16.3397 13.1309 15.9475Z"></path><path id="Vector_8" d="M30.6564 8.28761C30.6564 6.37911 29.2263 4.9412 27.3282 4.9412C25.43 4.9412 23.9999 6.37911 23.9999 8.28761C23.9999 10.1961 25.43 11.634 27.3282 11.634C29.2263 11.634 30.6564 10.1961 30.6564 8.28761ZM22.6218 8.28761C22.6218 5.64708 24.702 3.66016 27.3282 3.66016C29.9544 3.66016 32.0605 5.64708 32.0605 8.31375C32.0605 10.9543 29.9804 12.9673 27.3282 12.9673C24.702 12.9412 22.6218 10.9281 22.6218 8.28761Z"></path><path id="Vector_9" d="M41.9672 8.28758C41.9672 6.37908 40.5371 4.94118 38.639 4.94118C36.7408 4.94118 35.3107 6.37908 35.3107 8.28758C35.3107 10.1961 36.7408 11.634 38.639 11.634C40.5371 11.634 41.9672 10.1961 41.9672 8.28758ZM33.9326 8.28758C33.9326 5.64706 36.0128 3.63399 38.561 3.63399C40.1991 3.63399 41.3172 4.47059 41.8632 5.41176H41.9412V0.705882C41.9412 0.287582 42.2272 0 42.6693 0C43.1113 0 43.3973 0.287582 43.3973 0.705882V8.31372C43.3973 10.9542 41.3172 12.9412 38.665 12.9412C36.0388 12.9412 33.9326 10.9281 33.9326 8.28758Z"></path><path id="Vector_10" d="M53.2781 8.28738C53.2781 6.37889 51.848 4.94098 49.9499 4.94098C48.0517 4.94098 46.6216 6.37889 46.6216 8.28738C46.6216 10.1959 48.0517 11.6338 49.9499 11.6338C51.848 11.6338 53.2781 10.1959 53.2781 8.28738ZM45.2175 8.28738C45.2175 5.64686 47.3237 3.63379 49.9499 3.63379C52.5761 3.63379 54.6822 5.62072 54.6822 8.26124V12.3135C54.6822 12.7318 54.3962 13.0194 53.9542 13.0194C53.5122 13.0194 53.2261 12.7318 53.2261 12.3135V11.1371H53.1481C52.6021 12.0782 51.484 12.9148 49.8459 12.9148C47.3237 12.941 45.2175 10.9541 45.2175 8.28738Z"></path></g></svg>