<svg width="108" height="36" viewBox="0 0 108 36" fill="none" xmlns="http://www.w3.org/2000/svg"><path d="M99.3993 8.99998e-05H8.6053C8.27434 8.99998e-05 7.94736 8.99996e-05 7.61721 0.00189C7.34095 0.00368999 7.06685 0.00890998 6.78788 0.01332C6.18185 0.0204287 5.57724 0.0735926 4.97932 0.17235C4.38222 0.273257 3.80383 0.463501 3.26371 0.736648C2.72426 1.01212 2.23136 1.37006 1.80288 1.79748C1.37215 2.22366 1.0131 2.71627 0.739528 3.25637C0.465199 3.79545 0.274984 4.37312 0.175451 4.96943C0.0749645 5.56496 0.020892 6.16736 0.0137184 6.77122C0.00532489 7.04716 0.00442237 7.324 0 7.60003V28.4028C0.00442237 28.6822 0.00532489 28.9529 0.0137184 29.2326C0.0208988 29.8364 0.0749713 30.4387 0.175451 31.0342C0.274716 31.6308 0.464943 32.2088 0.739528 32.748C1.01297 33.2864 1.37207 33.7771 1.80288 34.2009C2.22974 34.6302 2.72296 34.9884 3.26371 35.2617C3.80383 35.5356 4.38215 35.727 4.97932 35.8295C5.57734 35.9274 6.18189 35.9806 6.78788 35.9886C7.06676 35.9947 7.34095 35.9982 7.6173 35.9982C7.94736 36 8.27434 36 8.6053 36H99.3992C99.7237 36 100.053 36 100.378 35.9982C100.653 35.9982 100.935 35.9947 101.21 35.9886C101.815 35.981 102.418 35.9278 103.015 35.8295C103.614 35.7263 104.194 35.5349 104.737 35.2617C105.277 34.9882 105.77 34.6301 106.196 34.2009C106.626 33.7754 106.986 33.2851 107.263 32.748C107.535 32.2084 107.724 31.6305 107.822 31.0342C107.922 30.4386 107.978 29.8364 107.989 29.2325C107.993 28.9529 107.993 28.6822 107.993 28.4028C108 28.0758 108 27.7506 108 27.4183V8.58265C108 8.25298 108 7.9261 107.993 7.60003C107.993 7.324 107.993 7.04716 107.989 6.77113C107.978 6.16722 107.922 5.56495 107.822 4.96934C107.724 4.37343 107.535 3.79587 107.263 3.25646C106.706 2.1738 105.822 1.29252 104.737 0.736558C104.194 0.464081 103.614 0.273887 103.015 0.17226C102.418 0.0730826 101.815 0.0199153 101.21 0.01323C100.935 0.00881998 100.653 0.00350999 100.378 0.0018C100.053 0 99.7237 0 99.3992 0L99.3993 8.99998e-05Z" fill="#192024"></path><path d="M7.62163 35.2126C7.34664 35.2126 7.07831 35.2091 6.80548 35.203C6.24032 35.1957 5.67648 35.1466 5.11857 35.0563C4.59836 34.9669 4.09441 34.8007 3.62336 34.5631C3.15661 34.3275 2.7309 34.0185 2.36254 33.6481C1.98881 33.2821 1.67766 32.8575 1.44142 32.3913C1.2026 31.922 1.03733 31.419 0.95135 30.8998C0.858532 30.3419 0.808328 29.7778 0.80117 29.2123C0.795394 29.0225 0.787903 28.3906 0.787903 28.3906V7.60004C0.787903 7.60004 0.795845 6.97778 0.80117 6.7949C0.808047 6.23034 0.85798 5.66712 0.950538 5.11011C1.03668 4.58947 1.2021 4.08502 1.44106 3.61422C1.67639 3.14829 1.98577 2.7234 2.35721 2.35602C2.72826 1.98516 3.15535 1.67463 3.62291 1.43578C4.09289 1.19898 4.59589 1.03397 5.11505 0.946267C5.6748 0.855026 6.24061 0.805718 6.80774 0.798758L7.62209 0.787598H100.373L101.197 0.799028C101.759 0.805686 102.32 0.854604 102.875 0.945367C103.399 1.0342 103.907 1.20039 104.383 1.43848C105.319 1.91983 106.081 2.68137 106.562 3.61638C106.797 4.08396 106.96 4.58432 107.045 5.10048C107.139 5.66204 107.191 6.22968 107.202 6.79886C107.205 7.05374 107.205 7.32752 107.205 7.60004C107.212 7.93754 107.212 8.25875 107.212 8.58266V27.4184C107.212 27.7453 107.212 28.0644 107.205 28.386C107.205 28.6787 107.205 28.9468 107.201 29.2228C107.191 29.7818 107.139 30.3394 107.047 30.8909C106.963 31.4139 106.798 31.9208 106.56 32.3939C106.322 32.8551 106.012 33.2759 105.643 33.641C105.274 34.0134 104.848 34.3242 104.38 34.5613C103.906 34.8007 103.399 34.9675 102.875 35.0561C102.317 35.147 101.753 35.196 101.188 35.2029C100.918 35.2092 100.648 35.2124 100.378 35.2125L99.3994 35.2143L7.62163 35.2126Z" fill="#ddc7bb"></path><path d="M38.1784 24.4257H33.9064L32.8805 27.4465H31.0709L35.1174 16.2703H36.9973L41.0437 27.4465H39.2035L38.1784 24.4257ZM34.3488 23.0317H37.7351L36.0658 18.1293H36.019L34.3488 23.0317ZM49.7825 23.3728C49.7825 25.9049 48.4234 27.5317 46.3725 27.5317C45.853 27.5588 45.3363 27.4395 44.8816 27.1873C44.4269 26.9352 44.0526 26.5605 43.8016 26.1061H43.7628V30.1421H42.0854V19.2982H43.709V20.6535H43.7398C44.0024 20.2013 44.383 19.8285 44.8412 19.5748C45.2993 19.3212 45.8179 19.1961 46.3416 19.213C48.4155 19.213 49.7825 20.8478 49.7825 23.3728ZM48.0585 23.3728C48.0585 21.7231 47.2036 20.6386 45.8992 20.6386C44.6176 20.6386 43.7557 21.7459 43.7557 23.3727C43.7557 25.0146 44.6176 26.1141 45.8992 26.1141C47.2036 26.1141 48.0585 25.0376 48.0585 23.3728ZM58.7764 23.3728C58.7764 25.9049 57.417 27.5317 55.366 27.5317C54.8464 27.5588 54.3297 27.4395 53.8751 27.1873C53.4204 26.9352 53.0461 26.5605 52.795 26.1061H52.7562V30.1421H51.079V19.2982H52.7024V20.6535H52.7333C52.9959 20.2013 53.3765 19.8285 53.8347 19.5748C54.2928 19.3212 54.8113 19.1961 55.3351 19.213C57.409 19.213 58.7764 20.8478 58.7764 23.3728ZM57.0521 23.3728C57.0521 21.7231 56.1971 20.6386 54.8927 20.6386C53.6111 20.6386 52.7492 21.7459 52.7492 23.3727C52.7492 25.0146 53.6111 26.1141 54.8927 26.1141C56.1971 26.1141 57.0521 25.0376 57.0521 23.3728ZM64.7196 24.3326C64.8438 25.4408 65.9235 26.1686 67.3989 26.1686C68.8126 26.1686 69.8297 25.4408 69.8297 24.4415C69.8297 23.574 69.2163 23.0546 67.7639 22.6986L66.3113 22.3497C64.2533 21.854 63.2979 20.8942 63.2979 19.3368C63.2979 17.4085 64.9831 16.084 67.3751 16.084C69.7443 16.084 71.3677 17.4085 71.4224 19.3368H69.7293C69.6279 18.2215 68.7033 17.5482 67.3522 17.5482C66.001 17.5482 65.0765 18.2294 65.0765 19.2208C65.0765 20.011 65.667 20.4759 67.1116 20.8318L68.3463 21.1342C70.6459 21.6764 71.6004 22.5976 71.6004 24.2322C71.6004 26.3232 69.9311 27.6328 67.2746 27.6328C64.789 27.6328 63.111 26.3539 63.0026 24.3325L64.7196 24.3326ZM75.2219 17.3699V19.2982H76.7758V20.6227H75.2219V25.1148C75.2219 25.8126 75.533 26.1378 76.2162 26.1378C76.4006 26.1346 76.5848 26.1217 76.7679 26.0991V27.4158C76.4608 27.473 76.1486 27.4989 75.8363 27.493C74.182 27.493 73.5367 26.8735 73.5367 25.2932V20.6227H72.3487V19.2982H73.5367V17.3699H75.2219ZM77.6748 23.3728C77.6748 20.809 79.189 19.198 81.5503 19.198C83.9194 19.198 85.4265 20.809 85.4265 23.3728C85.4265 25.9436 83.9272 27.5476 81.5502 27.5476C79.174 27.5476 77.6748 25.9436 77.6748 23.3728ZM83.7175 23.3728C83.7175 21.6141 82.9093 20.5761 81.5502 20.5761C80.1912 20.5761 79.3829 21.622 79.3829 23.3728C79.3829 25.1385 80.1912 26.1686 81.5502 26.1686C82.9093 26.1686 83.7175 25.1385 83.7175 23.3728ZM86.8093 19.2982H88.409V20.6851H88.4478C88.556 20.2519 88.8105 19.8691 89.1685 19.601C89.5264 19.3329 89.966 19.1959 90.4133 19.213C90.6066 19.2123 90.7994 19.2332 90.988 19.2753V20.8398C90.7439 20.7654 90.4894 20.7313 90.2344 20.7387C89.9907 20.7289 89.7478 20.7717 89.5223 20.8643C89.2968 20.9569 89.0941 21.0971 88.928 21.2752C88.762 21.4533 88.6366 21.6651 88.5604 21.8961C88.4842 22.1271 88.459 22.3718 88.4866 22.6134V27.4465H86.8093V19.2982ZM98.7211 25.0532C98.4954 26.5325 97.0508 27.5476 95.2027 27.5476C92.8256 27.5476 91.3501 25.9594 91.3501 23.4114C91.3501 20.8556 92.8335 19.198 95.1322 19.198C97.3928 19.198 98.8145 20.7466 98.8145 23.2172V23.7903H93.0433V23.8913C93.0166 24.1912 93.0543 24.4933 93.1537 24.7776C93.2532 25.0618 93.4121 25.3218 93.62 25.5401C93.8279 25.7584 94.08 25.93 94.3596 26.0437C94.6391 26.1574 94.9398 26.2104 95.2415 26.1994C95.6378 26.2364 96.0356 26.1448 96.3756 25.9383C96.7156 25.7318 96.9796 25.4214 97.1285 25.0532H98.7211ZM93.0512 22.6213H97.1364C97.1515 22.3517 97.1105 22.0819 97.016 21.8288C96.9215 21.5757 96.7756 21.3448 96.5874 21.1506C96.3992 20.9564 96.1728 20.8031 95.9224 20.7003C95.672 20.5975 95.4029 20.5474 95.1322 20.5532C94.859 20.5516 94.5883 20.6039 94.3355 20.7072C94.0828 20.8105 93.853 20.9626 93.6596 21.1549C93.4661 21.3472 93.3127 21.5758 93.2083 21.8274C93.1039 22.0791 93.0505 22.349 93.0512 22.6213ZM34.1391 7.85795C34.4907 7.83278 34.8436 7.88575 35.1722 8.01305C35.5008 8.14034 35.797 8.33877 36.0394 8.59404C36.2818 8.84931 36.4644 9.15505 36.5739 9.4892C36.6835 9.82335 36.7173 10.1776 36.673 10.5264C36.673 12.2419 35.7431 13.2281 34.1391 13.2281H32.1938V7.85786L34.1391 7.85795ZM33.0303 12.4686H34.0456C34.2969 12.4836 34.5483 12.4425 34.7817 12.3484C35.015 12.2542 35.2243 12.1093 35.3945 11.9243C35.5646 11.7393 35.6912 11.5188 35.7651 11.2789C35.8389 11.0389 35.8582 10.7856 35.8215 10.5372C35.8556 10.2899 35.8343 10.0381 35.7593 9.79992C35.6843 9.56172 35.5574 9.34302 35.3877 9.15949C35.2179 8.97595 35.0096 8.83212 34.7776 8.7383C34.5456 8.64449 34.2956 8.603 34.0456 8.61683H33.0303V12.4686ZM37.6178 11.2C37.5923 10.9337 37.6228 10.665 37.7075 10.4111C37.7922 10.1572 37.9292 9.92383 38.1096 9.72584C38.2901 9.52786 38.51 9.36967 38.7554 9.26142C39.0007 9.15317 39.266 9.09725 39.5343 9.09725C39.8026 9.09725 40.068 9.15317 40.3133 9.26142C40.5587 9.36967 40.7786 9.52786 40.9591 9.72584C41.1395 9.92383 41.2765 10.1572 41.3612 10.4111C41.4459 10.665 41.4764 10.9337 41.4509 11.2C41.477 11.4666 41.4468 11.7358 41.3624 11.9901C41.278 12.2444 41.1411 12.4783 40.9606 12.6768C40.7801 12.8752 40.5599 13.0338 40.3143 13.1423C40.0687 13.2508 39.803 13.3069 39.5343 13.3069C39.2657 13.3069 39 13.2508 38.7544 13.1423C38.5087 13.0338 38.2886 12.8752 38.1081 12.6768C37.9276 12.4783 37.7907 12.2444 37.7063 11.9901C37.6219 11.7358 37.5917 11.4666 37.6178 11.2ZM40.6259 11.2C40.6259 10.3215 40.2302 9.8078 39.5357 9.8078C38.8385 9.8078 38.4464 10.3215 38.4464 11.2C38.4464 12.0855 38.8386 12.5953 39.5357 12.5953C40.2302 12.5953 40.6259 12.082 40.6259 11.2ZM46.5461 13.2281H45.714L44.8741 10.2433H44.8107L43.9743 13.2281H43.1502L42.03 9.17537H42.8434L43.5715 12.2678H43.6314L44.467 9.17537H45.2364L46.072 12.2678H46.1354L46.8599 9.17537H47.6619L46.5461 13.2281ZM48.6041 9.17546H49.3762V9.81923H49.4361C49.5378 9.58798 49.7093 9.39413 49.9267 9.2647C50.1441 9.13526 50.3966 9.0767 50.6489 9.09716C50.8467 9.08234 51.0452 9.11207 51.2299 9.18416C51.4145 9.25625 51.5805 9.36884 51.7156 9.5136C51.8507 9.65836 51.9514 9.83157 52.0103 10.0204C52.0691 10.2092 52.0846 10.4089 52.0556 10.6045V13.228H51.2535V10.8054C51.2535 10.1541 50.9697 9.83021 50.3765 9.83021C50.2423 9.82398 50.1083 9.84677 49.9837 9.89702C49.8591 9.94727 49.7469 10.0238 49.6547 10.1213C49.5625 10.2189 49.4926 10.3351 49.4497 10.4621C49.4068 10.5892 49.3919 10.7239 49.4061 10.8572V13.2281H48.6041V9.17546ZM53.3336 7.59335H54.1356V13.2281H53.3336V7.59335ZM55.2505 11.2C55.225 10.9336 55.2555 10.6649 55.3402 10.411C55.4249 10.1571 55.5619 9.92366 55.7424 9.72564C55.9229 9.52763 56.1428 9.36942 56.3882 9.26115C56.6336 9.15289 56.899 9.09697 57.1673 9.09697C57.4356 9.09697 57.701 9.15289 57.9464 9.26115C58.1918 9.36942 58.4118 9.52763 58.5922 9.72564C58.7727 9.92366 58.9097 10.1571 58.9944 10.411C59.0791 10.6649 59.1097 10.9336 59.0841 11.2C59.1101 11.4666 59.0798 11.7357 58.9953 11.9899C58.9108 12.2442 58.7739 12.478 58.5934 12.6763C58.4129 12.8747 58.1927 13.0332 57.9471 13.1416C57.7016 13.2501 57.4359 13.3061 57.1673 13.3061C56.8987 13.3061 56.6331 13.2501 56.3875 13.1416C56.1419 13.0332 55.9218 12.8747 55.7412 12.6763C55.5607 12.478 55.4238 12.2442 55.3393 11.9899C55.2548 11.7357 55.2246 11.4666 55.2505 11.2ZM58.2586 11.2C58.2586 10.3215 57.8629 9.8078 57.1684 9.8078C56.4712 9.8078 56.0791 10.3215 56.0791 11.2C56.0791 12.0855 56.4713 12.5953 57.1684 12.5953C57.8629 12.5953 58.2586 12.082 58.2586 11.2ZM59.9284 12.082C59.9284 11.3525 60.4731 10.9319 61.44 10.8721L62.5408 10.8089V10.459C62.5408 10.031 62.257 9.78935 61.7088 9.78935C61.2611 9.78935 60.9508 9.95324 60.8618 10.2398H60.0853C60.1672 9.54365 60.8239 9.09725 61.7458 9.09725C62.7647 9.09725 63.3393 9.60305 63.3393 10.459V13.2281H62.5672V12.6585H62.5038C62.375 12.8628 62.1941 13.0294 61.9796 13.1412C61.7652 13.2529 61.5248 13.306 61.2831 13.2948C61.1125 13.3125 60.9401 13.2944 60.7769 13.2416C60.6138 13.1887 60.4636 13.1024 60.3359 12.9881C60.2083 12.8739 60.1061 12.7342 60.0359 12.5781C59.9657 12.422 59.9291 12.253 59.9284 12.082ZM62.5408 11.7357V11.3968L61.5484 11.4601C60.9887 11.4975 60.7348 11.6874 60.7348 12.0446C60.7348 12.4093 61.0521 12.6216 61.4884 12.6216C61.6163 12.6345 61.7454 12.6217 61.8682 12.5838C61.9909 12.5459 62.1048 12.4838 62.2029 12.4011C62.3011 12.3185 62.3816 12.217 62.4397 12.1026C62.4977 11.9883 62.5321 11.8635 62.5408 11.7357ZM64.3935 11.2C64.3935 9.9194 65.0536 9.10823 66.0804 9.10823C66.3344 9.09655 66.5864 9.15721 66.8071 9.28312C67.0278 9.40902 67.208 9.59497 67.3267 9.81923H67.3866V7.59326H68.1886V13.228H67.4201V12.5876H67.3566C67.2288 12.8104 67.0424 12.994 66.8174 13.1186C66.5925 13.2433 66.3376 13.3042 66.0805 13.2947C65.0465 13.2947 64.3935 12.4836 64.3935 11.2ZM65.222 11.2C65.222 12.0595 65.6283 12.5768 66.3077 12.5768C66.9837 12.5768 67.4016 12.0521 67.4016 11.2034C67.4016 10.3589 66.9794 9.8267 66.3077 9.8267C65.6326 9.8267 65.222 10.3474 65.222 11.2ZM71.507 11.2C71.4814 10.9337 71.512 10.665 71.5967 10.4111C71.6813 10.1572 71.8183 9.92383 71.9988 9.72584C72.1792 9.52786 72.3992 9.36967 72.6445 9.26142C72.8899 9.15317 73.1552 9.09725 73.4235 9.09725C73.6918 9.09725 73.9571 9.15317 74.2025 9.26142C74.4478 9.36967 74.6678 9.52786 74.8482 9.72584C75.0287 9.92383 75.1656 10.1572 75.2503 10.4111C75.335 10.665 75.3656 10.9337 75.34 11.2C75.3661 11.4666 75.336 11.7358 75.2515 11.9901C75.1671 12.2444 75.0302 12.4783 74.8497 12.6768C74.6692 12.8752 74.4491 13.0338 74.2035 13.1423C73.9578 13.2508 73.6921 13.3069 73.4235 13.3069C73.1548 13.3069 72.8891 13.2508 72.6435 13.1423C72.3979 13.0338 72.1777 12.8752 71.9972 12.6768C71.8167 12.4783 71.6799 12.2444 71.5954 11.9901C71.511 11.7358 71.4809 11.4666 71.507 11.2ZM74.5151 11.2C74.5151 10.3215 74.1193 9.8078 73.4248 9.8078C72.7276 9.8078 72.3355 10.3215 72.3355 11.2C72.3355 12.0855 72.7277 12.5953 73.4248 12.5953C74.1193 12.5953 74.5151 12.082 74.5151 11.2ZM76.4162 9.17546H77.1883V9.81923H77.2482C77.3499 9.58798 77.5214 9.39413 77.7388 9.2647C77.9562 9.13526 78.2086 9.0767 78.461 9.09716C78.6588 9.08234 78.8573 9.11207 79.042 9.18416C79.2266 9.25625 79.3926 9.36884 79.5277 9.5136C79.6628 9.65836 79.7635 9.83157 79.8224 10.0204C79.8812 10.2092 79.8967 10.4089 79.8677 10.6045V13.228H79.0656V10.8054C79.0656 10.1541 78.7818 9.83021 78.1886 9.83021C78.0544 9.82398 77.9204 9.84677 77.7958 9.89702C77.6712 9.94727 77.5589 10.0238 77.4668 10.1213C77.3746 10.2189 77.3047 10.3351 77.2618 10.4621C77.2189 10.5892 77.204 10.7239 77.2182 10.8572V13.2281H76.4163L76.4162 9.17546ZM84.3997 8.16647V9.19391H85.2802V9.86756H84.3997V11.9514C84.3997 12.3759 84.5751 12.5619 84.9744 12.5619C85.0765 12.5615 85.1786 12.5553 85.2801 12.5433V13.2096C85.1361 13.2353 84.9902 13.249 84.8438 13.2505C83.952 13.2505 83.5967 12.9375 83.5967 12.1563V9.86756H82.9516V9.19382H83.5967V8.16656L84.3997 8.16647ZM86.3757 7.59335H87.1707V9.8267H87.2342C87.3408 9.5933 87.517 9.39835 87.7387 9.26843C87.9605 9.13851 88.217 9.07993 88.4733 9.10067C88.6701 9.08999 88.8667 9.12274 89.0493 9.19658C89.2319 9.27042 89.3958 9.38354 89.5295 9.52785C89.6632 9.67216 89.7633 9.84412 89.8227 10.0315C89.882 10.2188 89.8992 10.4169 89.873 10.6116V13.2281H89.0701V10.8089C89.0701 10.1615 88.7677 9.83372 88.201 9.83372C88.0632 9.82245 87.9246 9.84135 87.7948 9.8891C87.665 9.93686 87.5473 10.0123 87.4498 10.1102C87.3524 10.208 87.2775 10.3259 87.2305 10.4557C87.1835 10.5854 87.1655 10.7238 87.1778 10.8612V13.2281H86.3757V7.59335ZM94.5496 12.1338C94.4406 12.5042 94.2045 12.8246 93.8826 13.0389C93.5607 13.2532 93.1734 13.3479 92.7886 13.3063C92.5208 13.3133 92.2548 13.2622 92.0088 13.1564C91.7629 13.0506 91.543 12.8928 91.3643 12.6937C91.1857 12.4947 91.0527 12.2593 90.9744 12.0039C90.8962 11.7484 90.8746 11.4791 90.9112 11.2145C90.8756 10.9491 90.8975 10.6791 90.9756 10.4229C91.0536 10.1667 91.186 9.93021 91.3636 9.72943C91.5413 9.52866 91.7602 9.3683 92.0054 9.25921C92.2507 9.15013 92.5165 9.09486 92.7851 9.09716C93.9158 9.09716 94.5981 9.86756 94.5981 11.1402V11.4192H91.7283V11.4641C91.7157 11.6128 91.7345 11.7625 91.7833 11.9035C91.8322 12.0446 91.91 12.174 92.0119 12.2833C92.1138 12.3926 92.2375 12.4794 92.3751 12.5383C92.5126 12.5972 92.6609 12.6267 92.8106 12.6251C93.0025 12.648 93.1968 12.6136 93.369 12.5261C93.5412 12.4386 93.6834 12.302 93.7775 12.1338H94.5496ZM91.7283 10.8278H93.781C93.7911 10.6918 93.7726 10.5551 93.7266 10.4267C93.6806 10.2982 93.6082 10.1808 93.5139 10.0819C93.4197 9.98307 93.3058 9.90495 93.1795 9.85259C93.0532 9.80023 92.9174 9.77479 92.7806 9.77792C92.6419 9.77617 92.5043 9.80214 92.3758 9.85429C92.2473 9.90644 92.1305 9.98371 92.0325 10.0816C91.9344 10.1794 91.857 10.2958 91.8047 10.424C91.7525 10.5521 91.7265 10.6894 91.7283 10.8278Z" fill="#192024"></path><path fill-rule="evenodd" clip-rule="evenodd" d="M23.9157 14.3154C22.9262 13.0857 21.5377 12.3742 20.2277 12.3742C18.4939 12.3742 17.7614 13.1952 16.5585 13.1952C15.3188 13.1952 14.3763 12.3756 12.8767 12.3756C11.4039 12.3756 9.83785 13.2675 8.84496 14.7918C7.44788 16.9364 7.68464 20.9708 9.94985 24.4088C10.7601 25.6378 11.8421 27.0203 13.2568 27.033C14.5141 27.0445 14.8702 26.233 16.5763 26.2235C18.2824 26.2142 18.605 27.0418 19.8627 27.0303C21.277 27.0167 22.4186 25.4864 23.2285 24.2567C23.8091 23.3764 24.0249 22.9316 24.4759 21.9351C21.2008 20.7013 20.6741 16.0864 23.9157 14.3154ZM18.9126 11.0004C19.5422 10.1944 20.0207 9.05645 19.847 7.89307C18.8181 7.964 17.6147 8.61667 16.9121 9.46728C16.2745 10.2396 15.748 11.3849 15.9529 12.4984C17.0758 12.533 18.2382 11.864 18.9126 11.0004Z" fill="#192024"></path></svg>