<svg width="106" height="18" viewBox="0 0 106 18" fill="black" xmlns="http://www.w3.org/2000/svg"><g id="Logo"><path id="Shape" d="M41.5801 1.79989C41.5801 1.14675 41.9739 0.558056 42.5776 0.308738C43.1812 0.0594204 43.8757 0.198677 44.3366 0.66147C44.7974 1.12426 44.9338 1.81928 44.682 2.42192C44.4302 3.02456 43.8399 3.41592 43.1867 3.41322C42.2983 3.40955 41.5801 2.68831 41.5801 1.79989Z"></path><path id="Shape_2" fill-rule="evenodd" clip-rule="evenodd" d="M11.5118 5.55466C12.4709 4.60185 13.7823 4.08963 15.1334 4.14013C16.4878 4.08604 17.804 4.59621 18.7681 5.54899C19.7323 6.50178 20.258 7.81182 20.22 9.1668C20.258 10.5218 19.7323 11.8318 18.7681 12.7846C17.804 13.7374 16.4878 14.2476 15.1334 14.1935C13.7823 14.244 12.4709 13.7318 11.5118 12.7789C10.5527 11.8261 10.0318 10.5181 10.0734 9.1668C10.0318 7.81548 10.5527 6.50747 11.5118 5.55466ZM12.7867 9.17347C12.7867 10.7401 13.7467 11.8401 15.1334 11.8401C16.5534 11.8401 17.5067 10.7401 17.5067 9.17347C17.5067 7.6068 16.52 6.5068 15.1334 6.5068C13.7467 6.5068 12.7867 7.6068 12.7867 9.17347Z"></path><path id="Shape_3" d="M38.46 9.4201C38.3573 9.22268 38.2272 9.04086 38.0733 8.8801L38 8.7801L38.0933 8.69343C38.2395 8.53505 38.3732 8.36566 38.4933 8.18676L41.0733 4.33343H37.9267L36 7.33343C35.8337 7.52294 35.5829 7.61571 35.3333 7.5801H34.8933V1.9001C34.8733 0.760098 34.16 0.600098 33.4 0.600098H32.0667V14.0468H34.8533V10.0001H35.1133C35.4333 10.0001 35.6467 10.0401 35.7467 10.2068L37.3333 13.1268C37.6095 13.7785 38.2943 14.158 38.9933 14.0468H41.1267L39.54 11.4134L38.46 9.4201Z"></path><path id="Shape_4" d="M52.0001 4.12002C50.9346 4.09146 49.9063 4.51247 49.1668 5.28002L49.0001 5.45335L48.9401 5.22002C48.75 4.61484 48.1473 4.23847 47.5201 4.33335H46.2734V14.04H49.0401V9.56668C49.0351 9.17321 49.0937 8.78152 49.2134 8.40668C49.4759 7.38936 50.403 6.68574 51.4534 6.70668C52.3201 6.70668 52.6534 7.16002 52.6534 8.34002V12.5667C52.5885 12.9739 52.7226 13.3876 53.0142 13.6792C53.3058 13.9708 53.7195 14.105 54.1268 14.04H55.4601V7.86668C55.4468 5.41335 54.2468 4.12002 52.0001 4.12002Z"></path><path id="Shape_5" d="M43.2201 4.33967H41.8867V11.8463V14.0463H44.6667V5.813C44.7295 5.41108 44.5986 5.00312 44.3136 4.71285C44.0286 4.42258 43.6231 4.2842 43.2201 4.33967Z"></path><path id="Shape_6" fill-rule="evenodd" clip-rule="evenodd" d="M22.3739 5.55214C23.3345 4.59911 24.6477 4.08773 25.9999 4.14013C27.3543 4.08604 28.6705 4.59621 29.6347 5.54899C30.5988 6.50178 31.1246 7.81182 31.0866 9.1668C31.1246 10.5218 30.5988 11.8318 29.6347 12.7846C28.6705 13.7374 27.3543 14.2476 25.9999 14.1935C24.6477 14.2459 23.3345 13.7345 22.3739 12.7815C21.4133 11.8284 20.8915 10.5193 20.9332 9.1668C20.8915 7.81428 21.4133 6.50517 22.3739 5.55214ZM23.6466 9.17347C23.6466 10.7401 24.6132 11.8401 25.9999 11.8401C27.4199 11.8401 28.3732 10.7401 28.3732 9.17347C28.3732 7.6068 27.3866 6.5068 25.9999 6.5068C24.6132 6.5068 23.6466 7.6068 23.6466 9.17347Z"></path><path id="Shape_7" fill-rule="evenodd" clip-rule="evenodd" d="M63.4934 4.90632C63.7243 4.50566 64.1659 4.27447 64.6267 4.31299H65.9001V13.2063C65.9001 16.6063 63.1467 17.813 60.7934 17.813C59.6157 17.8033 58.4564 17.5203 57.4067 16.9863L57.2134 16.8863L57.5267 16.093L57.7467 15.5463C57.8004 15.2992 57.9652 15.0906 58.1932 14.9812C58.4212 14.8717 58.687 14.8736 58.9134 14.9863C59.5085 15.2091 60.138 15.3264 60.7734 15.333C62.2934 15.333 63.1334 14.6263 63.1334 13.333V13.053L62.9201 13.213C62.3016 13.6546 61.5525 13.8753 60.7934 13.8397C58.2134 13.8397 56.4067 11.8263 56.4067 8.93299C56.4067 6.03966 58.1534 4.09299 60.7401 4.09299C61.6642 4.05234 62.5709 4.35378 63.2867 4.93966L63.4134 5.05299L63.4934 4.90632ZM61.2868 11.413C61.289 11.413 61.2912 11.413 61.2934 11.413H61.2801C61.2823 11.413 61.2846 11.413 61.2868 11.413ZM59.2467 8.85966C59.2467 10.0779 59.7785 11.4091 61.2868 11.413C62.1587 11.4108 63.1868 10.9811 63.2001 8.95299C63.2001 6.78632 62.0267 6.53966 61.1467 6.53966C59.3801 6.53966 59.2467 8.31299 59.2467 8.85966Z"></path><path id="Shape_8" fill-rule="evenodd" clip-rule="evenodd" d="M7.70667 7.15311L7.33333 6.92645L7.68667 6.61978C8.41461 5.98242 8.82035 5.0536 8.79333 4.08645C8.76 1.99978 7.12 0.606445 4.58667 0.606445H1.33333C0.590355 0.645207 0.00604161 1.25581 0 1.99978V13.9998H4.66667C7.48 13.9998 9.33333 12.4598 9.33333 10.0864C9.36986 8.8844 8.74564 7.75875 7.70667 7.15311ZM2.57333 4.48645V3.75311C2.57333 3.13978 2.83333 2.83978 3.40667 2.80645H4.56667C4.99719 2.76454 5.42388 2.91749 5.72975 3.22336C6.03562 3.52923 6.18857 3.95592 6.14667 4.38645C6.18116 4.8111 6.03262 5.23026 5.73845 5.53845C5.44427 5.84663 5.03246 6.01449 4.60667 5.99978H2.57333V4.48645ZM2.57333 11.7331H4.82667C5.3278 11.7859 5.82603 11.61 6.18299 11.2544C6.53994 10.8987 6.71762 10.4011 6.66667 9.89978C6.69399 9.40971 6.50648 8.93204 6.15306 8.59144C5.79965 8.25083 5.3154 8.08106 4.82667 8.12645H3.29333C2.8 8.19311 2.57333 8.49311 2.57333 9.06645V11.7331Z"></path><path id="Shape_9" d="M66.9934 12.5397C66.9934 11.8871 67.3865 11.2988 67.9893 11.0491C68.5922 10.7994 69.2861 10.9374 69.7475 11.3989C70.209 11.8603 70.347 12.5542 70.0973 13.157C69.8476 13.7599 69.2593 14.153 68.6067 14.153C67.7157 14.153 66.9934 13.4307 66.9934 12.5397Z"></path><path id="Shape_10" fill-rule="evenodd" clip-rule="evenodd" d="M81.7074 5.55214C82.668 4.59911 83.9812 4.08773 85.3334 4.14013C86.6878 4.08604 88.004 4.59621 88.9682 5.54899C89.9323 6.50178 90.4581 7.81182 90.4201 9.1668C90.321 11.899 88.0774 14.0628 85.3434 14.0628C82.6094 14.0628 80.3657 11.899 80.2667 9.1668C80.225 7.81428 80.7468 6.50517 81.7074 5.55214ZM82.9801 9.17347C82.9801 10.7401 83.9467 11.8401 85.3334 11.8401C86.7467 11.8401 87.7067 10.7401 87.7067 9.17347C87.7067 7.6068 86.7201 6.5068 85.3334 6.5068C83.9467 6.5068 82.9801 7.6068 82.9801 9.17347Z"></path><path id="Shape_11" d="M102.78 4.14657C101.622 4.15102 100.528 4.68066 99.8066 5.58657L99.6066 5.83991L99.4466 5.55991C98.9264 4.61534 97.9016 4.06254 96.8266 4.14657C95.8553 4.15887 94.9329 4.57421 94.2799 5.29324L94.0132 5.57324L93.9132 5.19991C93.7221 4.64154 93.1656 4.29373 92.5799 4.36657H91.3999V14.0399H94.0666V9.77324C94.0679 9.39123 94.1149 9.01076 94.2066 8.63991C94.4599 7.60657 95.1532 6.49991 96.3132 6.63991C97.0332 6.70657 97.3866 7.25991 97.3866 8.33324V14.0666H100.053V9.79991C100.045 9.40595 100.094 9.01289 100.2 8.63324C100.42 7.64657 101.14 6.63324 102.267 6.63324C103.08 6.63324 103.38 7.09324 103.38 8.33324V12.6532C103.38 13.6332 103.82 14.0666 104.793 14.0666H106V7.86657C106 5.39991 104.913 4.14657 102.78 4.14657Z"></path><path id="Shape_12" d="M78.7334 10.6665C78.0218 11.381 77.0732 11.8103 76.0667 11.8732C75.3379 11.9151 74.6253 11.6472 74.1047 11.1355C73.5841 10.6238 73.3039 9.91589 73.3334 9.18648C73.2808 8.47057 73.532 7.76558 74.0254 7.24422C74.5189 6.72287 75.209 6.43331 75.9267 6.44648C76.4267 6.44648 76.9934 6.61982 77.08 6.91982V6.97315C77.1951 7.39678 77.5811 7.68971 78.02 7.68648H79.4667V6.42648C79.4667 4.75315 77.3467 4.14648 75.9134 4.14648C72.86 4.14648 70.64 6.27315 70.64 9.20648C70.6142 10.5838 71.1615 11.91 72.1513 12.8681C73.141 13.8263 74.4843 14.3303 75.86 14.2598C77.3994 14.2745 78.8744 13.6434 79.9267 12.5198L80 12.4265L78.8534 10.5198L78.7334 10.6665Z"></path></g></svg>