<svg width="108" height="36" viewBox="0 0 180 60" fill="none" xmlns="http://www.w3.org/2000/svg"><path d="M165.666 0.00015H14.3422C13.7906 0.00015 13.2456 0.000149999 12.6954 0.00314999C12.2349 0.00614998 11.7781 0.01485 11.3131 0.0221999C10.3031 0.0340479 9.29541 0.122654 8.29886 0.287249C7.3037 0.455428 6.33972 0.772502 5.43951 1.22775C4.54044 1.68686 3.71894 2.28343 3.0048 2.99579C2.28692 3.7061 1.68849 4.52712 1.23255 5.42729C0.775332 6.32575 0.458306 7.28853 0.292418 8.28238C0.124941 9.27493 0.03482 10.2789 0.0228639 11.2854C0.00887482 11.7453 0.00737061 12.2067 0 12.6667V47.3379C0.00737061 47.8037 0.00887482 48.2549 0.0228639 48.7209C0.0348313 49.7273 0.124952 50.7312 0.292418 51.7236C0.45786 52.718 0.774905 53.6813 1.23255 54.5801C1.68828 55.4774 2.28678 56.2951 3.0048 57.0015C3.71623 57.717 4.53827 58.314 5.43951 58.7696C6.33971 59.226 7.30359 59.545 8.29886 59.7158C9.29558 59.879 10.3032 59.9677 11.3131 59.981C11.7779 59.9912 12.2349 59.997 12.6955 59.997C13.2456 60 13.7906 60 14.3422 60H165.665C166.206 60 166.755 60 167.296 59.997C167.754 59.997 168.224 59.9912 168.683 59.981C169.691 59.9684 170.697 59.8797 171.691 59.7158C172.69 59.5438 173.657 59.2249 174.562 58.7696C175.462 58.3137 176.283 57.7168 176.994 57.0015C177.71 56.2923 178.31 55.4752 178.772 54.5801C179.226 53.6806 179.54 52.7174 179.703 51.7236C179.87 50.731 179.964 49.7273 179.982 48.7208C179.988 48.2549 179.988 47.8037 179.988 47.3379C180 46.793 180 46.251 180 45.6972V14.3044C180 13.755 180 13.2102 179.988 12.6667C179.988 12.2067 179.988 11.7453 179.982 11.2852C179.964 10.2787 179.871 9.27492 179.703 8.28223C179.539 7.28906 179.225 6.32645 178.772 5.42744C177.843 3.623 176.371 2.15419 174.562 1.2276C173.657 0.773468 172.69 0.456479 171.691 0.287099C170.697 0.121804 169.691 0.0331922 168.683 0.0220499C168.224 0.0147 167.754 0.00584999 167.296 0.00299999C166.755 0 166.206 0 165.665 0L165.666 0.00015Z" fill="#192024"></path><path d="M12.7028 58.6875C12.2444 58.6875 11.7972 58.6817 11.3425 58.6715C10.4006 58.6593 9.46084 58.5775 8.531 58.427C7.66398 58.278 6.82407 58.0009 6.03898 57.605C5.26107 57.2123 4.55155 56.6974 3.93761 56.0801C3.31473 55.47 2.79614 54.7624 2.40241 53.9853C2.00438 53.2032 1.72892 52.3649 1.58563 51.4995C1.43093 50.5697 1.34726 49.6295 1.33533 48.687C1.3257 48.3707 1.31322 47.3175 1.31322 47.3175V12.6666C1.31322 12.6666 1.32645 11.6295 1.33533 11.3247C1.34679 10.3837 1.43001 9.44503 1.58428 8.51668C1.72785 7.64896 2.00355 6.80821 2.40181 6.02354C2.79403 5.24699 3.30967 4.53884 3.92873 3.92654C4.54714 3.30843 5.25896 2.79089 6.03823 2.3928C6.82153 1.99815 7.65986 1.72312 8.52514 1.57695C9.45804 1.42488 10.4011 1.3427 11.3463 1.3311L12.7035 1.3125H167.289L168.662 1.33155C169.599 1.34265 170.533 1.42418 171.458 1.57545C172.332 1.7235 173.179 2.00048 173.971 2.3973C175.532 3.19955 176.802 4.4688 177.604 6.02714C177.996 6.80644 178.267 7.64037 178.409 8.50063C178.565 9.43658 178.652 10.3826 178.67 11.3313C178.675 11.7561 178.675 12.2124 178.675 12.6666C178.687 13.2291 178.687 13.7644 178.687 14.3043V45.6971C178.687 46.242 178.687 46.7738 178.675 47.3099C178.675 47.7977 178.675 48.2445 178.669 48.7044C178.651 49.6362 178.565 50.5654 178.412 51.4847C178.271 52.3563 177.997 53.2011 177.599 53.9897C177.203 54.7583 176.687 55.4597 176.072 56.0682C175.457 56.6889 174.747 57.2068 173.967 57.602C173.177 58.0009 172.331 58.279 171.458 58.4267C170.528 58.5781 169.588 58.6599 168.646 58.6713C168.196 58.6818 167.746 58.6871 167.296 58.6874L165.666 58.6904L12.7028 58.6875Z" fill="#ddc7bb"></path><path d="M63.2244 17.5307C63.2244 18.6464 62.8936 19.5349 62.2311 20.1977C61.4785 20.9859 60.4977 21.3802 59.292 21.3802C58.1373 21.3802 57.1555 20.9807 56.3482 20.1806C55.5394 19.381 55.1358 18.3895 55.1358 17.2065C55.1358 16.023 55.5394 15.0321 56.3482 14.2319C57.1555 13.4324 58.1373 13.0323 59.292 13.0323C59.8649 13.0323 60.4134 13.1442 60.9342 13.3674C61.455 13.5911 61.8728 13.8881 62.1853 14.26L61.4821 14.9628C60.9525 14.3308 60.2233 14.015 59.292 14.015C58.4499 14.015 57.7217 14.3105 57.1072 14.902C56.4925 15.494 56.1853 16.2618 56.1853 17.2065C56.1853 18.1513 56.4925 18.919 57.1072 19.5111C57.7217 20.1026 58.4498 20.3981 59.292 20.3981C60.1853 20.3981 60.9301 20.101 61.5264 19.5059C61.9134 19.1183 62.1373 18.5794 62.1972 17.8875H59.2919V16.9277H63.1686C63.206 17.1364 63.2244 17.3366 63.2244 17.5307Z" fill="#192024"></path><path d="M63.2244 17.5307L63.0911 17.5307C63.09 18.621 62.7712 19.4679 62.1368 20.1036L62.1354 20.1047L62.1348 20.1058C61.4061 20.8667 60.4695 21.2455 59.2919 21.2471C58.1681 21.2455 57.2274 20.8626 56.4419 20.0864C55.6582 19.3087 55.2707 18.3593 55.2692 17.2065C55.2707 16.0532 55.6582 15.1044 56.4419 14.3272C57.2274 13.5505 58.1681 13.1671 59.2919 13.1655C59.8477 13.1655 60.3769 13.2738 60.8816 13.4896C61.3867 13.7071 61.7858 13.9921 62.0832 14.346L62.1853 14.26L62.091 14.1659L61.3878 14.8691L61.4821 14.9628L61.5848 14.8776C61.0305 14.2142 60.2525 13.8798 59.292 13.8818C58.4186 13.8807 57.6504 14.1925 57.0149 14.8064C56.3733 15.4222 56.0509 16.2332 56.052 17.2065C56.0509 18.1799 56.3733 18.9908 57.0149 19.6068C57.6504 20.2207 58.4186 20.5323 59.2919 20.5313C60.2149 20.5329 61.0014 20.2201 61.6206 19.6001C62.0342 19.1859 62.2686 18.6122 62.3301 17.8989L62.3425 17.7543H59.4253V17.0609H63.1686L63.1686 16.9277L63.0373 16.9511C63.0738 17.153 63.0911 17.3449 63.0911 17.5307H63.3577C63.3577 17.3283 63.3389 17.1202 63.2998 16.9039L63.2801 16.7945H59.1587V18.0206H62.1972L62.1972 17.8875L62.0644 17.876C62.0056 18.5461 61.792 19.0508 61.4321 19.4118C60.8592 19.9819 60.1561 20.2633 59.292 20.2649C58.4811 20.2638 57.7931 19.985 57.1999 19.4154C56.6124 18.8478 56.3202 18.1232 56.3187 17.2065C56.3202 16.2899 56.6124 15.5653 57.1999 14.9977C57.7931 14.4281 58.4811 14.1492 59.292 14.1482C60.1936 14.1503 60.8744 14.4478 61.3801 15.0487L61.4739 15.16L62.366 14.2679L62.2873 14.1747C61.9598 13.7846 61.5233 13.475 60.9868 13.2452C60.4494 13.0146 59.8822 12.8991 59.292 12.8991C58.1067 12.8981 57.0837 13.3142 56.254 14.1378C55.4212 14.9598 55.0015 15.9929 55.0026 17.2065C55.0015 18.4196 55.4212 19.4534 56.2546 20.2758C57.0837 21.0988 58.1067 21.5145 59.292 21.5134C60.5264 21.5145 61.5504 21.105 62.3275 20.2898L62.2311 20.1977L62.3253 20.292C63.016 19.6026 63.3586 18.6715 63.3577 17.5307L63.2244 17.5307ZM69.3701 14.1929H65.7269V16.7265H69.0124V17.6866H65.7269V20.2201H69.3701V21.2018H64.6999V13.2113H69.3701V14.1929Z" fill="#192024"></path><path d="M69.3701 14.1929L69.3701 14.0598H65.5936V16.8596H68.879V17.5531L65.5935 17.5534V20.3533H69.2367V21.0686H64.8332V13.3445H69.2367V14.1929L69.3701 14.1929L69.5034 14.1929V13.0781H64.5665V21.3349H69.5034V20.087H65.8602V17.8198H69.1457V16.5933H65.8602V14.3261H69.5034V14.1929L69.3701 14.1929ZM73.705 21.2018H72.6764V14.1929H70.4419V13.2112H75.9394V14.1929H73.705V21.2018Z" fill="#192024"></path><path d="M73.705 21.2018L73.705 21.0686H72.8097V14.0598H70.5753V13.3445H75.806V14.0598H73.5717V21.2018L73.705 21.2018L73.8383 21.2018V14.3261H76.0727V13.0781H70.3086V14.326H72.543V21.3349H73.8383V21.2018L73.705 21.2018ZM79.917 21.2018V13.2112H80.9446V21.2017L79.917 21.2018Z" fill="#192024"></path><path d="M79.917 21.2018H80.0503V13.3445H80.8112V21.0686H79.9169L79.917 21.2018L79.9169 21.3349H81.0778V13.0781H79.7836V21.3349H79.9169L79.917 21.2018ZM85.5044 21.2018H84.4758V14.1929H82.2414V13.2112H87.7388V14.1929H85.5044V21.2018Z" fill="#192024"></path><path d="M85.5044 21.2018L85.5044 21.0686H84.6091V14.0598H82.3749V13.3445H87.6055V14.0598H85.3711V21.2018L85.5044 21.2018L85.6378 21.2018V14.3261H87.8722V13.0781H82.1082V14.326H84.3424V21.3349H85.6378V21.2018L85.5044 21.2018ZM93.0389 19.5002C93.631 20.0989 94.3555 20.398 95.2123 20.398C96.0691 20.398 96.794 20.0989 97.3852 19.5002C97.9779 18.9015 98.2748 18.1361 98.2748 17.2065C98.2748 16.277 97.9779 15.5116 97.3852 14.9129C96.794 14.3141 96.0691 14.015 95.2123 14.015C94.3555 14.015 93.631 14.3141 93.0389 14.9129C92.4477 15.5116 92.1509 16.277 92.1509 17.2065C92.1509 18.1361 92.4477 18.9015 93.0389 19.5002ZM98.1456 20.1691C97.3591 20.977 96.381 21.3802 95.2123 21.3802C94.0424 21.3802 93.0648 20.977 92.28 20.1691C91.493 19.3622 91.1013 18.3745 91.1013 17.2065C91.1013 16.0386 91.493 15.0507 92.28 14.2439C93.0648 13.4359 94.0424 13.0323 95.2123 13.0323C96.3748 13.0323 97.3503 13.4381 98.1404 14.2491C98.9295 15.0601 99.3243 16.0459 99.3243 17.2065C99.3243 18.3745 98.9304 19.3622 98.1456 20.1691Z" fill="#192024"></path><path d="M93.0389 19.5002L92.944 19.5939C93.5581 20.2166 94.3243 20.5329 95.2123 20.5313C96.0997 20.5329 96.8669 20.2166 97.48 19.5939C98.0981 18.9706 98.409 18.1642 98.4081 17.2065C98.409 16.2489 98.0981 15.4425 97.48 14.8192C96.8669 14.1965 96.0997 13.8803 95.2123 13.8818C94.3243 13.8803 93.5581 14.1965 92.944 14.8192C92.3274 15.4425 92.0158 16.2489 92.0175 17.2065C92.0158 18.1642 92.3274 18.9706 92.944 19.5939L93.0389 19.5002L93.1337 19.4066C92.568 18.8317 92.2852 18.1086 92.2841 17.2065C92.2852 16.3046 92.568 15.5814 93.1336 15.0065C93.7044 14.4317 94.3862 14.1498 95.2123 14.1482C96.0377 14.1498 96.7211 14.4317 97.2904 15.0065C97.857 15.5814 98.1399 16.3046 98.1409 17.2065C98.1399 18.1085 97.857 18.8317 97.2904 19.4066C96.7211 19.9814 96.0378 20.2633 95.2123 20.2649C94.3862 20.2633 93.7044 19.9814 93.1337 19.4066L93.0389 19.5002ZM98.1456 20.1691L98.0503 20.0766C97.2857 20.859 96.3508 21.2455 95.2123 21.2471C94.0732 21.2455 93.1383 20.859 92.3752 20.0766C91.6123 19.2915 91.2358 18.3448 91.2347 17.2065C91.2358 16.0683 91.6123 15.1215 92.3752 14.3365C93.1383 13.5541 94.0732 13.1671 95.2123 13.1655C96.3435 13.1671 97.2762 13.5557 98.045 14.3422C98.8106 15.1309 99.1893 16.0761 99.1909 17.2065C99.1893 18.3448 98.8117 19.2915 98.0503 20.0766L98.1456 20.1691L98.2415 20.2617C99.0497 19.4326 99.4585 18.4041 99.4576 17.2065C99.4586 16.0158 99.0481 14.9894 98.2361 14.1566C97.4237 13.3205 96.406 12.8977 95.2123 12.8991C94.0123 12.8977 92.9915 13.3185 92.1841 14.1514V14.1508C91.3743 14.9805 90.9669 16.009 90.968 17.2065C90.9669 18.4041 91.3743 19.4326 92.1841 20.2622L92.1877 20.266L92.1841 20.2617C92.9915 21.0946 94.0123 21.5145 95.2123 21.5134C96.4117 21.5145 97.4325 21.0946 98.2415 20.2617L98.1456 20.1691ZM100.767 21.2018V13.2112H102.018L105.906 19.4273H105.95L105.906 17.8874V13.2112H106.935V21.2017H105.862L101.794 14.6844H101.75L101.794 16.2248V21.2017L100.767 21.2018Z" fill="#192024"></path><path d="M100.767 21.2018L100.9 21.2018V13.3445H101.944L105.832 19.5605H106.087L106.039 17.8855V13.3445H106.801V21.0686H105.936L101.868 14.5513H101.613L101.661 16.2271V21.0686H100.767L100.767 21.2018L100.767 21.3349H101.927V16.2228L101.883 14.6809L101.75 14.6844L101.75 14.8177H101.794L101.794 14.6844L101.681 14.7553L105.788 21.3349H107.068V13.0781H105.773V17.889L105.817 19.4309L105.95 19.4273L105.95 19.2942H105.906L105.906 19.4273L106.019 19.3567L102.092 13.0781H100.634V21.3349H100.767L100.767 21.2018ZM142.581 43.8415H145.069V27.1931H142.581L142.581 43.8415ZM164.99 33.1902L162.138 40.4081H162.053L159.093 33.1902H156.413L160.852 43.2786L158.321 48.8902H160.917L167.757 33.1902L164.99 33.1902ZM150.881 41.9506C150.065 41.9506 148.929 41.5437 148.929 40.5367C148.929 39.2516 150.345 38.759 151.566 38.759C152.661 38.759 153.174 38.9946 153.84 39.3163C153.646 40.8581 152.317 41.9506 150.881 41.9506ZM151.181 32.826C149.38 32.826 147.514 33.6187 146.742 35.3751L148.95 36.2958C149.422 35.3751 150.301 35.0749 151.224 35.0749C152.51 35.0749 153.818 35.8464 153.84 37.2171V37.3883C153.389 37.1313 152.425 36.7458 151.245 36.7458C148.865 36.7458 146.441 38.052 146.441 40.4939C146.441 42.7215 148.393 44.1567 150.58 44.1567C152.253 44.1567 153.174 43.4071 153.754 42.5291H153.84V43.814H156.241V37.4309C156.241 34.4756 154.033 32.826 151.181 32.826ZM135.805 35.2168H132.266V29.5102H135.805C137.665 29.5102 138.721 31.0484 138.721 32.3635C138.721 33.6536 137.665 35.2168 135.805 35.2168ZM135.741 27.1931H129.78V43.8415H132.266V37.5339H135.741C138.498 37.5339 141.209 35.5399 141.209 32.3635C141.209 29.1871 138.498 27.1931 135.741 27.1931ZM103.233 41.9536C101.514 41.9536 100.075 40.5163 100.075 38.5421C100.075 36.5472 101.514 35.0879 103.233 35.0879C104.93 35.0879 106.262 36.5471 106.262 38.5421C106.262 40.5163 104.93 41.9536 103.233 41.9536ZM106.09 34.1224H106.004C105.446 33.4575 104.371 32.8568 103.018 32.8568C100.183 32.8568 97.5836 35.3454 97.5836 38.5421C97.5836 41.7175 100.182 44.1849 103.018 44.1849C104.371 44.1849 105.446 43.584 106.004 42.8978H106.09V43.713C106.09 45.8803 104.93 47.0388 103.061 47.0388C101.536 47.0388 100.591 45.9442 100.204 45.0218L98.0347 45.9229C98.6576 47.4247 100.312 49.27 103.061 49.27C105.982 49.27 108.453 47.5532 108.453 43.3697V33.2001H106.09V34.1224ZM110.171 43.8415H112.663V27.1925H110.171V43.8415ZM116.336 38.3491C116.272 36.1605 118.033 35.0452 119.3 35.0452C120.289 35.0452 121.126 35.5384 121.405 36.247L116.336 38.3491ZM124.069 36.4612C123.597 35.195 122.157 32.8568 119.214 32.8568C116.293 32.8568 113.866 35.1524 113.866 38.5208C113.866 41.6962 116.272 44.1849 119.493 44.1849C122.093 44.1849 123.597 42.5971 124.22 41.6747L122.286 40.3872C121.642 41.3314 120.761 41.9536 119.493 41.9536C118.226 41.9536 117.324 41.3742 116.744 40.2374L124.326 37.1047L124.069 36.4612ZM63.6582 34.5947V36.9975H69.4148C69.243 38.3491 68.7919 39.336 68.1044 40.0226C67.267 40.8596 65.9566 41.782 63.6581 41.782C60.1138 41.782 57.343 38.9286 57.343 35.3885C57.343 31.8485 60.1138 28.9947 63.6582 28.9947C65.5701 28.9947 66.9659 29.7458 67.9971 30.7112L69.6941 29.0165C68.255 27.643 66.343 26.5918 63.6582 26.5918C58.8034 26.5918 54.7222 30.5396 54.7222 35.3885C54.7222 40.2374 58.8034 44.1849 63.6582 44.1849C66.279 44.1849 68.255 43.3271 69.8014 41.7175C71.391 40.1298 71.8853 37.8986 71.8853 36.0966C71.8853 35.5384 71.8425 35.0239 71.756 34.5947H63.6582ZM78.43 41.9536C76.7112 41.9536 75.229 40.5375 75.229 38.5208C75.229 36.4825 76.7112 35.0879 78.43 35.0879C80.1482 35.0879 81.6304 36.4825 81.6304 38.5208C81.6304 40.5376 80.1482 41.9536 78.43 41.9536ZM78.43 32.8568C75.2935 32.8568 72.7372 35.2381 72.7372 38.5208C72.7372 41.782 75.2935 44.1849 78.43 44.1849C81.5659 44.1849 84.1221 41.782 84.1221 38.5208C84.1221 35.2381 81.5659 32.8568 78.43 32.8568ZM90.8475 41.9536C89.1295 41.9536 87.647 40.5375 87.647 38.5208C87.647 36.4825 89.1295 35.0879 90.8476 35.0879C92.5659 35.0879 94.0481 36.4825 94.0481 38.5208C94.0481 40.5376 92.5658 41.9536 90.8475 41.9536ZM90.8475 32.8568C87.7112 32.8568 85.1555 35.2381 85.1555 38.5208C85.1555 41.782 87.7112 44.1849 90.8476 44.1849C93.9836 44.1849 96.5399 41.782 96.5399 38.5208C96.5399 35.2381 93.9835 32.8568 90.8475 32.8568Z" fill="#192024"></path><path fill-rule="evenodd" clip-rule="evenodd" d="M28.2128 30.6266L12.5573 46.2388C12.4493 45.9261 12.3889 45.5623 12.3889 45.148V16.1053C12.3889 15.6918 12.4495 15.3281 12.5577 15.0151L28.2128 30.6266ZM41.4159 28.7307L35.7362 25.5125L30.6079 30.6265L35.7362 35.7404L41.4159 32.5223C43.2561 31.4797 43.2561 29.7734 41.4159 28.7307ZM29.4104 29.4325L34.2088 24.6472L15.735 14.1799C14.9911 13.7584 14.3045 13.6545 13.7473 13.813L29.4104 29.4325ZM29.4104 31.8208L13.7475 47.4403C14.3056 47.5986 14.9932 47.4937 15.735 47.0734L34.2088 36.606L29.4104 31.8208Z" fill="#192024"></path></svg>