<svg class="r60B-logo" width="94" height="18" viewBox="0 0 94 18" fill="black" xmlns="http://www.w3.org/2000/svg"><g id="Logo"><path id="CombinedShape" fill-rule="evenodd" clip-rule="evenodd" d="M37 17.9999H19V0H37V17.9999ZM18 17.9999H0V4.16667e-05H18V17.9999ZM38 17.9999H56V0H38V17.9999ZM75 17.9999H57V0H75V17.9999ZM76 17.9999H94V0H76V17.9999ZM7.73575 4.49983V8.66129L10.0378 4.4999H12.4503L9.94644 8.9999L12.4503 13.4999H10.0378L7.73575 9.3385V13.4998H5.54975V4.49983H7.73575ZM26.3742 12.2045L25.9828 13.4999H23.6486L26.6169 4.49991H29.3966L32.3516 13.4999H29.9498L29.5584 12.2045H26.3742ZM26.9138 10.4369L27.9663 7.07716L29.0188 10.4369H26.9138ZM48.1133 13.4999H45.9274V9.5329L42.9724 4.4999H45.5766L47.0338 7.2659L48.4641 4.4999H51.0276L48.1133 9.5329V13.4999ZM63.9828 13.4999L64.3742 12.2045H67.5584L67.9498 13.4999H70.3514L67.3966 4.49991H64.6169L61.6486 13.4999H63.9828ZM65.9663 7.07716L64.9138 10.4369H67.0188L65.9663 7.07716ZM83.7357 4.49983V8.66129L86.0378 4.4999H88.4503L85.9464 8.9999L88.4503 13.4999H86.0378L83.7357 9.3385V13.4998H81.5498V4.49983H83.7357Z"></path></g></svg>