<svg class="r60B-logo" width="122" height="28" viewBox="0 0 122 28" fill="black" xmlns="http://www.w3.org/2000/svg"><g id="Logo"><path id="Shape" fill-rule="evenodd" clip-rule="evenodd" d="M23.8768 0.368327C18.3464 0.341475 13.3456 3.64562 11.2106 8.73721C9.07552 13.8288 10.2276 19.7028 14.1287 23.6152C18.0298 27.5276 23.9098 28.706 29.0218 26.6001C34.1339 24.4941 37.4689 19.5194 37.469 13.9999C37.4853 6.49053 31.4011 0.388648 23.8768 0.368327ZM23.8768 17.4041C22.4916 17.4131 21.2379 16.5868 20.7022 15.3118C20.1666 14.0368 20.4549 12.5652 21.4323 11.5855C22.4097 10.6058 23.8829 10.3116 25.1628 10.8407C26.4426 11.3698 27.276 12.6174 27.273 13.9999C27.275 14.9008 26.9183 15.7656 26.2813 16.404C25.6444 17.0424 24.7795 17.4022 23.8768 17.4041ZM3.41097 10.6104C1.53122 10.6064 0.00408196 12.1239 1.52989e-10 13.9999C-1.75978e-05 15.8743 1.51815 17.396 3.39621 17.4041C5.27595 17.4082 6.80309 15.8907 6.80716 14.0146C6.81124 12.1386 5.29071 10.6145 3.41097 10.6104Z"></path><path id="Shape_2" fill-rule="evenodd" clip-rule="evenodd" d="M82.3211 8.38525H90.2358C90.32 8.38525 90.4007 8.41864 90.4602 8.47805C90.5198 8.53747 90.5532 8.61806 90.5532 8.7021V10.0874C90.5532 10.1714 90.5198 10.252 90.4602 10.3114C90.4007 10.3708 90.32 10.4042 90.2358 10.4042H87.3785V19.0253C87.371 19.197 87.2332 19.3346 87.061 19.3421H85.4958C85.3221 19.3382 85.1823 19.1986 85.1784 19.0253V10.4042H82.3211C82.1458 10.4042 82.0037 10.2623 82.0037 10.0874V8.7021C82.0037 8.52711 82.1458 8.38525 82.3211 8.38525ZM69.9545 11.3842C70.9156 11.3633 71.8428 11.7387 72.5177 12.422C73.1925 13.1052 73.5553 14.0359 73.5205 14.9947C73.5315 15.1616 73.5315 15.3289 73.5205 15.4958C73.5029 15.6902 73.3465 15.8432 73.1514 15.8568H68.1383C68.1479 16.3565 68.3581 16.8315 68.7218 17.1751C69.0855 17.5186 69.5722 17.7021 70.0726 17.6842C70.6764 17.6988 71.2656 17.4976 71.7338 17.1168C71.9184 16.9621 72.1251 16.9474 72.2433 17.1168L72.9003 17.9937C72.9755 18.0553 73.019 18.1472 73.019 18.2442C73.019 18.3412 72.9755 18.4331 72.9003 18.4947C72.0968 19.1875 71.068 19.5647 70.0062 19.5558C68.9287 19.5667 67.8939 19.1362 67.1432 18.3647C66.3925 17.5932 65.9916 16.5482 66.0341 15.4737C65.992 14.4074 66.3857 13.3698 67.1249 12.5988C67.864 11.8277 68.8853 11.3894 69.9545 11.3842ZM71.4311 14.4716C71.3913 13.6947 70.7334 13.0939 69.9545 13.1232C69.1343 13.0658 68.4118 13.6575 68.3081 14.4716H71.4311ZM102.159 11.3842C101.512 11.3823 100.869 11.4971 100.262 11.7231V8.77578C100.254 8.57552 100.093 8.41492 99.8928 8.40736H98.5269C98.3292 8.42151 98.172 8.57846 98.1578 8.77578V18.9737C98.1654 19.1739 98.3263 19.3345 98.5269 19.3421H99.3095C99.5118 19.3382 99.6748 19.1755 99.6787 18.9737V18.3695C100.33 19.1169 101.277 19.5423 102.27 19.5337C104.389 19.5337 105.925 17.6768 105.925 15.4516C105.925 13.2263 104.433 11.3842 102.13 11.3842H102.159ZM100.262 16.5274C100.549 17.211 101.233 17.6434 101.975 17.6105H101.945C103.156 17.6105 103.776 16.5421 103.776 15.4737C103.834 14.9305 103.662 14.3879 103.302 13.9766C102.942 13.5654 102.426 13.3228 101.879 13.3074C101.309 13.3003 100.749 13.4535 100.262 13.7495V16.5274ZM115.139 11.3842C116.1 11.3633 117.027 11.7387 117.702 12.422C118.377 13.1052 118.74 14.0359 118.705 14.9947C118.704 15.1624 118.691 15.3298 118.668 15.4958C118.65 15.6902 118.494 15.8432 118.299 15.8568H113.323C113.332 16.3513 113.538 16.8216 113.896 17.1643C114.253 17.5071 114.732 17.6941 115.227 17.6842C115.831 17.6988 116.42 17.4976 116.889 17.1168C117.081 16.9621 117.28 16.9474 117.398 17.1168L118.055 17.9937C118.126 18.0606 118.163 18.1558 118.156 18.2529C118.149 18.3501 118.098 18.4389 118.018 18.4947C117.215 19.1875 116.186 19.5647 115.124 19.5558C114.053 19.5566 113.028 19.1217 112.285 18.3513C111.543 17.581 111.147 16.5418 111.189 15.4737C111.147 14.4074 111.54 13.3698 112.28 12.5988C113.019 11.8277 114.04 11.3894 115.109 11.3842H115.139ZM115.139 13.1232C115.918 13.0939 116.576 13.6947 116.615 14.4716H113.492C113.596 13.6575 114.319 13.0658 115.139 13.1232ZM61.0875 11.3842C60.1173 11.3803 59.1933 11.7971 58.5551 12.5263V11.9C58.5511 11.6982 58.3881 11.5355 58.1859 11.5316H57.359C57.1551 11.5316 56.9899 11.6965 56.9899 11.9V22.1421C56.9936 22.3452 57.1556 22.5101 57.359 22.5179H58.7175C58.9164 22.5002 59.0729 22.3409 59.0866 22.1421V19.1947C59.6873 19.4043 60.3183 19.5138 60.9546 19.5189C62.0142 19.5268 63.0298 19.0964 63.76 18.33C64.4902 17.5635 64.8698 16.5295 64.8085 15.4737C64.8085 13.1084 63.2064 11.3842 61.0875 11.3842ZM59.0645 17.1684C59.5582 17.4669 60.1264 17.6202 60.7035 17.6105C61.2482 17.5964 61.7628 17.358 62.125 16.9518C62.4873 16.5456 62.6649 16.0079 62.6157 15.4663C62.6157 14.3684 61.9956 13.3074 60.7847 13.3074C60.0413 13.2757 59.3559 13.7072 59.0645 14.3905V17.1684ZM79.2202 11.3842C78.2564 11.36 77.3353 11.7816 76.7248 12.5263V11.9368C76.7207 11.7322 76.5533 11.5684 76.3482 11.5684H75.4696C75.2674 11.5723 75.1044 11.735 75.1005 11.9368V18.9884C75.1081 19.1887 75.269 19.3493 75.4696 19.3568H76.7174C77.0865 19.3568 77.2047 19.2758 77.2047 18.9884V14.5674C77.4273 13.8299 78.1165 13.3321 78.888 13.3516C79.8256 13.3516 80.2317 13.9779 80.2317 14.9874V19.0179C80.2356 19.2197 80.3986 19.3824 80.6009 19.3863H81.952C82.1555 19.3826 82.3207 19.2209 82.3285 19.0179V14.9432C82.3359 13.0568 81.6936 11.3842 79.2202 11.3842ZM90.6861 11.7747C91.5497 11.5225 92.4442 11.3911 93.344 11.3842C95.7657 11.3842 96.2677 12.6516 96.2825 14.781V18.981C96.2786 19.1829 96.1156 19.3455 95.9133 19.3495H95.175C94.9728 19.3455 94.8098 19.1829 94.8059 18.981V18.561C94.1583 19.2006 93.2804 19.5537 92.3695 19.541C91.6522 19.5863 90.9507 19.318 90.4475 18.8059C89.9442 18.2937 89.6891 17.5885 89.7485 16.8737C89.7485 15.4884 90.8707 14.4274 92.842 14.4274C93.3419 14.4346 93.8386 14.509 94.3186 14.6484C94.3555 13.6463 94.0676 13.1747 93.2481 13.1747C92.501 13.1829 91.7575 13.2794 91.0331 13.4621C90.7821 13.5431 90.6344 13.3589 90.5975 13.1231L90.4277 12.2463C90.3935 12.1496 90.4022 12.0429 90.4515 11.953C90.5008 11.863 90.5861 11.7982 90.6861 11.7747ZM94.2521 17.1389C93.9582 17.6333 93.4324 17.9443 92.8567 17.9642C92.5544 17.9931 92.2547 17.8878 92.0372 17.6763C91.8196 17.4649 91.7062 17.1687 91.7271 16.8663C91.7271 16.1737 92.2144 15.7537 93.1078 15.7537C93.5007 15.7594 93.8891 15.8394 94.2521 15.9895V17.1389ZM45.9218 10.0441C46.9672 8.99254 48.3883 8.39847 49.8726 8.39262C52.9617 8.40886 55.455 10.917 55.4468 14C55.4468 15.9875 54.3844 17.8241 52.6597 18.8178C50.935 19.8116 48.8102 19.8116 47.0855 18.8178C45.3608 17.8241 44.2984 15.9875 44.2984 14C44.2925 12.5187 44.8765 11.0957 45.9218 10.0441ZM49.8726 10.5589C51.7573 10.5909 53.2718 12.1187 53.2836 14C53.2632 15.8752 51.7272 17.3808 49.8482 17.3673C47.9693 17.3538 46.4551 15.8263 46.4618 13.951C46.4685 12.0757 47.9936 10.559 49.8726 10.5589ZM110.192 18.9884C110.188 19.1902 110.025 19.3529 109.823 19.3568H108.664C107.954 19.2922 107.392 18.7312 107.328 18.0231V8.80525C107.342 8.60794 107.499 8.45098 107.697 8.43683H109.063C109.26 8.45098 109.418 8.60794 109.432 8.80525V16.9105C109.443 17.089 109.585 17.2313 109.764 17.2421H109.823C109.922 17.2421 110.017 17.2819 110.087 17.3526C110.156 17.4233 110.194 17.5189 110.192 17.6179V18.9884Z"></path><path id="Vector" d="M119.02 12.0483C119.02 11.1284 119.692 10.5 120.506 10.5C121.32 10.5 122 11.1284 122 12.0483C122 12.9683 121.328 13.5967 120.506 13.5967C119.683 13.5967 119.02 12.9683 119.02 12.0483ZM121.684 12.0483C121.684 11.3096 121.172 10.7831 120.509 10.7831C119.845 10.7831 119.339 11.3096 119.339 12.0483C119.339 12.7871 119.845 13.308 120.509 13.308C121.172 13.308 121.684 12.7956 121.684 12.0483ZM119.939 11.2303H120.54C120.873 11.2303 121.158 11.3633 121.158 11.7426C121.158 11.9323 121.038 12.1135 120.864 12.1757L121.229 12.8296H120.864L120.588 12.2805H120.264V12.8296H119.939V11.2331V11.2303ZM120.469 12.0257C120.682 12.0257 120.807 11.9295 120.807 11.7568C120.807 11.6011 120.719 11.4964 120.483 11.4964H120.261V12.0229H120.466L120.469 12.0257Z"></path></g></svg>