<svg class="r60B-logo" width="75" height="18" viewBox="0 0 75 18" fill="black" xmlns="http://www.w3.org/2000/svg"><g id="Logo"><path id="Priceline-Logo" fill-rule="evenodd" clip-rule="evenodd" d="M44.3054 14.3794V0.185059H41.4131V14.3794H44.3054ZM47.7 3.54716C48.5572 3.54716 49.2532 2.84471 49.2532 1.97804C49.2532 1.11067 48.5572 0.408216 47.7 0.408216C46.8415 0.408216 46.1455 1.11067 46.1455 1.97804C46.1455 2.84401 46.8415 3.54716 47.7 3.54716ZM69.5415 13.3352C70.0486 12.8594 70.3876 12.3661 70.7245 11.8531L70.7252 11.8524L68.5448 10.7331C68.1891 11.4356 67.6432 12.4805 66.065 12.4805C64.5056 12.4805 63.8089 11.2461 63.8304 10.011H70.837C70.8002 8.89243 70.7245 6.95699 69.4492 5.57102C68.1891 4.20611 66.497 4.14997 65.9157 4.14997C62.0439 4.14997 60.879 7.22225 60.879 9.61313C60.879 12.8601 62.9274 14.7394 65.8392 14.7394C67.4188 14.7394 68.6962 14.1317 69.5415 13.3352ZM67.3056 6.78716C67.7182 7.22295 67.7953 7.77313 67.8509 8.19067V8.19137H63.8492L63.8555 8.16277C63.9467 7.75308 64.0457 7.30843 64.4292 6.8812C64.7126 6.57804 65.2009 6.23629 65.8969 6.23629C66.4033 6.23629 66.9479 6.42646 67.3056 6.78716ZM54.0429 5.29831L53.9856 5.36045V4.49102H51.0731V14.3808H53.9648V9.02857C53.9648 7.79278 53.9648 6.55909 55.4874 6.55909C56.0507 6.55909 56.5571 6.78716 56.7842 7.31839C56.8961 7.58506 56.9162 7.90576 56.9162 8.79909V14.3794H59.7884V7.6033C59.7884 6.06576 59.5273 5.17313 58.4944 4.62225C57.9852 4.33804 57.3302 4.22506 56.746 4.22506C56.0493 4.22506 55.4124 4.39488 54.9609 4.58365C54.4894 4.81333 54.2941 5.02541 54.0429 5.29831ZM46.2608 4.45173H49.1177V14.3794H46.2608V4.45173ZM37.1717 8.19067C37.1155 7.77313 37.0404 7.22295 36.6251 6.78716C36.268 6.42646 35.7207 6.23629 35.2122 6.23629C34.5155 6.23629 34.0286 6.57804 33.748 6.8812C33.3633 7.30746 33.2639 7.75107 33.1722 8.15999L33.1652 8.19137H37.1724L37.1717 8.19067ZM38.8652 13.3352C39.373 12.8594 39.7105 12.3661 40.0481 11.8531L40.0474 11.8524L37.8684 10.7331C37.51 11.4356 36.964 12.4805 35.3803 12.4805C33.8216 12.4805 33.1256 11.2461 33.1443 10.011H40.162C40.1225 8.89243 40.0467 6.95699 38.7707 5.57102C37.51 4.20611 35.8144 4.14997 35.2296 4.14997C31.3599 4.14997 30.1943 7.22225 30.1943 9.61313C30.1943 12.8601 32.2427 14.7394 35.1552 14.7394C36.7369 14.7394 38.0198 14.1317 38.8652 13.3352ZM28.7384 11.3654C28.73 11.3387 28.6835 11.3479 28.6641 11.3794C28.6057 11.4833 28.5335 11.5879 28.4362 11.7015C27.8347 12.3844 27.1192 12.3844 26.9699 12.3844C25.4292 12.3844 24.7895 10.7338 24.7895 9.42295C24.7895 8.22787 25.3167 6.42506 26.8754 6.42506C27.3255 6.42506 27.6826 6.57664 27.9653 6.76611C28.3605 7.05313 28.5564 7.34085 28.7078 7.63839C28.7252 7.67067 28.7717 7.68471 28.7787 7.65944C29.0128 6.84822 29.4184 6.07137 30.038 5.45383C28.9106 4.39348 27.593 4.20541 26.7441 4.20541C23.4746 4.20541 21.8214 6.63278 21.8214 9.51769C21.8214 13.5619 24.8096 14.7008 26.6879 14.7008C27.7958 14.7008 28.753 14.3401 29.5059 13.8082C29.6726 13.6889 29.8192 13.5654 29.9526 13.4419C29.3948 12.903 28.978 12.2054 28.7391 11.3647L28.7384 11.3654ZM19.1457 3.54716C20.005 3.54716 20.701 2.84471 20.701 1.97804C20.701 1.11067 20.005 0.408216 19.1457 0.408216C18.2886 0.408216 17.5939 1.11067 17.5939 1.97804C17.5939 2.84401 18.2886 3.54716 19.1457 3.54716ZM17.703 4.45173H20.56V14.3794H17.703V4.45173ZM16.4513 4.35769C14.9475 4.50787 14.2515 4.94436 13.6124 5.49453V4.45173H10.7943V14.3794H13.6874V8.79909C13.6874 7.54716 14.1021 7.33734 15.4913 7.08962L16.4513 6.93804V4.35769ZM4.86579 6.31137C4.33858 6.31137 3.794 6.53944 3.3807 7.10927C2.96601 7.65874 2.77986 8.51418 2.77986 9.4433C2.77986 10.6959 3.10007 11.4749 3.47447 11.8917C3.81275 12.2524 4.30176 12.4608 4.77132 12.4608C6.17931 12.4608 6.8003 10.9233 6.8003 9.36611C6.8003 8.05804 6.44396 6.67278 5.25964 6.36751C5.12766 6.33102 4.99638 6.31067 4.8651 6.31067L4.86579 6.31137ZM2.85487 5.11629C2.7618 5.21173 2.66733 5.32471 2.57425 5.43839V4.50857H0V17.8152H2.91044V13.7345C2.92461 13.7433 2.93871 13.752 2.95274 13.7606C3.7024 14.2228 4.26619 14.5703 5.33466 14.5703C8.69869 14.5703 9.58293 11.4166 9.58293 9.38716C9.58293 6.08471 7.72136 4.24541 5.31729 4.24541C4.22674 4.24541 3.34388 4.6405 2.85487 5.11629Z"></path><path id="®" fill-rule="evenodd" clip-rule="evenodd" d="M73.9336 1.53667C73.6046 1.34458 73.2428 1.24854 72.8481 1.24854C72.4491 1.24854 72.0851 1.34669 71.7561 1.543C71.4272 1.73932 71.1672 2.00318 70.9762 2.33459C70.7852 2.666 70.6897 3.02379 70.6897 3.40798C70.6897 3.79216 70.7841 4.1489 70.973 4.4782C71.1619 4.8075 71.4208 5.06925 71.7498 5.26345C72.0787 5.45766 72.4406 5.55476 72.8353 5.55476C73.2343 5.55476 73.5993 5.4566 73.9304 5.26029C74.2615 5.06397 74.5225 4.80011 74.7135 4.4687C74.9045 4.13729 75 3.7795 75 3.39531C75 3.00691 74.9045 2.64806 74.7135 2.31876C74.5225 1.98946 74.2626 1.72876 73.9336 1.53667ZM73.6694 4.8075C73.4189 4.95526 73.1409 5.02914 72.8353 5.02914C72.534 5.02914 72.2591 4.95632 72.0108 4.81067C71.7625 4.66501 71.5673 4.4687 71.4251 4.22173C71.2829 3.97475 71.2118 3.7035 71.2118 3.40798C71.2118 3.11245 71.2839 2.84015 71.4283 2.59106C71.5726 2.34198 71.7689 2.14355 72.0172 1.99579C72.2655 1.84803 72.5424 1.77415 72.8481 1.77415C73.1494 1.77415 73.4253 1.84697 73.6757 1.99262C73.9262 2.13828 74.1235 2.33459 74.2679 2.58156C74.4122 2.82854 74.4843 3.09979 74.4843 3.39531C74.4843 3.69084 74.4111 3.96314 74.2647 4.21223C74.1182 4.46131 73.9198 4.65974 73.6694 4.8075ZM73.7522 3.02802C73.7522 3.18 73.7214 3.31193 73.6598 3.42381C73.5983 3.53569 73.5081 3.61907 73.3892 3.67395L73.8158 4.33255H73.2237L72.9245 3.77527H72.5424V4.33255H72.0267V2.32509H72.9054C73.177 2.32509 73.3861 2.38631 73.5325 2.50874C73.6789 2.63117 73.7522 2.80426 73.7522 3.02802ZM72.9054 3.36998H72.5424V2.73038H72.9054C73.0157 2.73038 73.1017 2.75677 73.1632 2.80954C73.2248 2.86231 73.2555 2.94147 73.2555 3.04702C73.2555 3.14834 73.2248 3.2275 73.1632 3.28449C73.1017 3.34149 73.0157 3.36998 72.9054 3.36998Z"></path></g></svg>